<svg id="visual" viewBox="0 0 900 900" width="900" height="900" xmlns="http://www.w3.org/2000/svg"
    xmlns:xlink="http://www.w3.org/1999/xlink" version="1.1">
    <g stroke-width="1" stroke-linejoin="bevel" opacity="0.3">
        <path d="M460 439L492.3 406.8L459 386.8Z" fill="#3b82f6" stroke="#3b82f6"></path>
        <path d="M460 439L520.3 442L492.3 406.8Z" fill="#3b82f6" stroke="#3b82f6"></path>
        <path d="M459 386.8L404.8 443L460 439Z" fill="#7599f9" stroke="#3b82f6"></path>
        <path d="M460 439L488.3 492.3L520.3 442Z" fill="#9db2fb" stroke="#3b82f6"></path>
        <path d="M500.3 325.5L450 340.5L459 386.8Z" fill="#afbefc" stroke="#3b82f6"></path>
        <path d="M459 386.8L375.8 396.8L404.8 443Z" fill="#ffffff" stroke="#3b82f6"></path>
        <path d="M500.3 325.5L459 386.8L492.3 406.8Z" fill="#f0f2ff" stroke="#3b82f6"></path>
        <path d="M465 507.3L488.3 492.3L460 439Z" fill="#ffffff" stroke="#3b82f6"></path>
        <path d="M450 340.5L375.8 396.8L459 386.8Z" fill="#8aa5fa" stroke="#3b82f6"></path>
        <path d="M560.5 401.8L500.3 325.5L492.3 406.8Z" fill="#e0e4fe" stroke="#3b82f6"></path>
        <path d="M404.8 443L465 507.3L460 439Z" fill="#8aa5fa" stroke="#3b82f6"></path>
        <path d="M580.5 443L560.5 401.8L520.3 442Z" fill="#afbefc" stroke="#3b82f6"></path>
        <path d="M520.3 442L560.5 401.8L492.3 406.8Z" fill="#e0e4fe" stroke="#3b82f6"></path>
        <path d="M442 284.3L411.8 319.5L450 340.5Z" fill="#afbefc" stroke="#3b82f6"></path>
        <path d="M450 340.5L411.8 319.5L375.8 396.8Z" fill="#e0e4fe" stroke="#3b82f6"></path>
        <path d="M345.5 405.8L354.5 435L375.8 396.8Z" fill="#7599f9" stroke="#3b82f6"></path>
        <path d="M375.8 396.8L354.5 435L404.8 443Z" fill="#3b82f6" stroke="#3b82f6"></path>
        <path d="M404.8 443L380.8 493.3L465 507.3Z" fill="#ffffff" stroke="#3b82f6"></path>
        <path d="M487.3 549.5L549.5 490.3L488.3 492.3Z" fill="#5c8df7" stroke="#3b82f6"></path>
        <path d="M488.3 492.3L549.5 490.3L520.3 442Z" fill="#e0e4fe" stroke="#3b82f6"></path>
        <path d="M354.5 435L380.8 493.3L404.8 443Z" fill="#5c8df7" stroke="#3b82f6"></path>
        <path d="M549.5 490.3L580.5 443L520.3 442Z" fill="#c0cbfd" stroke="#3b82f6"></path>
        <path d="M342.5 318.5L345.5 405.8L375.8 396.8Z" fill="#9db2fb" stroke="#3b82f6"></path>
        <path d="M500.3 325.5L442 284.3L450 340.5Z" fill="#e0e4fe" stroke="#3b82f6"></path>
        <path d="M442 284.3L411.8 287.3L411.8 319.5Z" fill="#afbefc" stroke="#3b82f6"></path>
        <path d="M411.8 319.5L342.5 318.5L375.8 396.8Z" fill="#afbefc" stroke="#3b82f6"></path>
        <path d="M433 571.5L487.3 549.5L465 507.3Z" fill="#7599f9" stroke="#3b82f6"></path>
        <path d="M465 507.3L487.3 549.5L488.3 492.3Z" fill="#3b82f6" stroke="#3b82f6"></path>
        <path d="M631.8 380.8L569.5 319.5L560.5 401.8Z" fill="#d0d7fe" stroke="#3b82f6"></path>
        <path d="M560.5 401.8L569.5 319.5L500.3 325.5Z" fill="#3b82f6" stroke="#3b82f6"></path>
        <path d="M500.3 325.5L509.3 269.3L442 284.3Z" fill="#7599f9" stroke="#3b82f6"></path>
        <path d="M555.5 282.3L509.3 269.3L500.3 325.5Z" fill="#5c8df7" stroke="#3b82f6"></path>
        <path d="M442 284.3L448 209L411.8 287.3Z" fill="#ffffff" stroke="#3b82f6"></path>
        <path d="M411.8 287.3L342.5 318.5L411.8 319.5Z" fill="#c0cbfd" stroke="#3b82f6"></path>
        <path d="M569.5 319.5L555.5 282.3L500.3 325.5Z" fill="#8aa5fa" stroke="#3b82f6"></path>
        <path d="M608.8 489.3L622.8 450L580.5 443Z" fill="#3b82f6" stroke="#3b82f6"></path>
        <path d="M580.5 443L631.8 380.8L560.5 401.8Z" fill="#afbefc" stroke="#3b82f6"></path>
        <path d="M569.5 319.5L611.8 320.5L555.5 282.3Z" fill="#d0d7fe" stroke="#3b82f6"></path>
        <path d="M608.8 489.3L580.5 443L549.5 490.3Z" fill="#7599f9" stroke="#3b82f6"></path>
        <path d="M569.5 546.5L608.8 489.3L549.5 490.3Z" fill="#e0e4fe" stroke="#3b82f6"></path>
        <path d="M380.8 493.3L433 571.5L465 507.3Z" fill="#f0f2ff" stroke="#3b82f6"></path>
        <path d="M622.8 450L631.8 380.8L580.5 443Z" fill="#9db2fb" stroke="#3b82f6"></path>
        <path d="M503.3 623.8L569.5 546.5L487.3 549.5Z" fill="#5c8df7" stroke="#3b82f6"></path>
        <path d="M487.3 549.5L569.5 546.5L549.5 490.3Z" fill="#ffffff" stroke="#3b82f6"></path>
        <path d="M631.8 380.8L611.8 320.5L569.5 319.5Z" fill="#e0e4fe" stroke="#3b82f6"></path>
        <path d="M264.3 433L321.5 511.3L354.5 435Z" fill="#9db2fb" stroke="#3b82f6"></path>
        <path d="M354.5 435L321.5 511.3L380.8 493.3Z" fill="#8aa5fa" stroke="#3b82f6"></path>
        <path d="M380.8 493.3L406.8 577.5L433 571.5Z" fill="#d0d7fe" stroke="#3b82f6"></path>
        <path d="M288.3 394.8L354.5 435L345.5 405.8Z" fill="#d0d7fe" stroke="#3b82f6"></path>
        <path d="M328.5 545.5L406.8 577.5L380.8 493.3Z" fill="#5c8df7" stroke="#3b82f6"></path>
        <path d="M602.8 603.8L620.8 552.5L569.5 546.5Z" fill="#f0f2ff" stroke="#3b82f6"></path>
        <path d="M342.5 318.5L288.3 394.8L345.5 405.8Z" fill="#f0f2ff" stroke="#3b82f6"></path>
        <path d="M344.5 227L337.5 288.3L411.8 287.3Z" fill="#7599f9" stroke="#3b82f6"></path>
        <path d="M411.8 287.3L337.5 288.3L342.5 318.5Z" fill="#afbefc" stroke="#3b82f6"></path>
        <path d="M342.5 318.5L269.3 343.5L288.3 394.8Z" fill="#e0e4fe" stroke="#3b82f6"></path>
        <path d="M555.5 282.3L511.3 233L509.3 269.3Z" fill="#5c8df7" stroke="#3b82f6"></path>
        <path d="M509.3 269.3L511.3 233L442 284.3Z" fill="#f0f2ff" stroke="#3b82f6"></path>
        <path d="M565.5 207L511.3 233L555.5 282.3Z" fill="#7599f9" stroke="#3b82f6"></path>
        <path d="M285.3 510.3L328.5 545.5L321.5 511.3Z" fill="#9db2fb" stroke="#3b82f6"></path>
        <path d="M321.5 511.3L328.5 545.5L380.8 493.3Z" fill="#ffffff" stroke="#3b82f6"></path>
        <path d="M675 440L665 388.8L622.8 450Z" fill="#3b82f6" stroke="#3b82f6"></path>
        <path d="M622.8 450L665 388.8L631.8 380.8Z" fill="#d0d7fe" stroke="#3b82f6"></path>
        <path d="M680 353.5L636.8 296.3L611.8 320.5Z" fill="#c0cbfd" stroke="#3b82f6"></path>
        <path d="M230 432L264.3 433L220 375.8Z" fill="#8aa5fa" stroke="#3b82f6"></path>
        <path d="M288.3 394.8L264.3 433L354.5 435Z" fill="#3b82f6" stroke="#3b82f6"></path>
        <path d="M511.3 233L448 209L442 284.3Z" fill="#9db2fb" stroke="#3b82f6"></path>
        <path d="M264.3 433L285.3 510.3L321.5 511.3Z" fill="#e0e4fe" stroke="#3b82f6"></path>
        <path d="M680 353.5L611.8 320.5L631.8 380.8Z" fill="#5c8df7" stroke="#3b82f6"></path>
        <path d="M611.8 320.5L636.8 296.3L555.5 282.3Z" fill="#3b82f6" stroke="#3b82f6"></path>
        <path d="M503.3 623.8L487.3 549.5L433 571.5Z" fill="#c0cbfd" stroke="#3b82f6"></path>
        <path d="M569.5 546.5L620.8 552.5L608.8 489.3Z" fill="#5c8df7" stroke="#3b82f6"></path>
        <path d="M656 521.3L675 440L622.8 450Z" fill="#9db2fb" stroke="#3b82f6"></path>
        <path d="M337.5 288.3L269.3 343.5L342.5 318.5Z" fill="#d0d7fe" stroke="#3b82f6"></path>
        <path d="M656 521.3L622.8 450L608.8 489.3Z" fill="#f0f2ff" stroke="#3b82f6"></path>
        <path d="M448 634.8L433 571.5L406.8 577.5Z" fill="#f0f2ff" stroke="#3b82f6"></path>
        <path d="M448 634.8L503.3 623.8L433 571.5Z" fill="#afbefc" stroke="#3b82f6"></path>
        <path d="M620.8 552.5L656 521.3L608.8 489.3Z" fill="#ffffff" stroke="#3b82f6"></path>
        <path d="M378.8 206L344.5 227L411.8 287.3Z" fill="#e0e4fe" stroke="#3b82f6"></path>
        <path d="M337.5 288.3L267.3 276.3L269.3 343.5Z" fill="#9db2fb" stroke="#3b82f6"></path>
        <path d="M726.3 411.8L680 353.5L665 388.8Z" fill="#d0d7fe" stroke="#3b82f6"></path>
        <path d="M665 388.8L680 353.5L631.8 380.8Z" fill="#7599f9" stroke="#3b82f6"></path>
        <path d="M381.8 627.8L448 634.8L406.8 577.5Z" fill="#c0cbfd" stroke="#3b82f6"></path>
        <path d="M448 209L378.8 206L411.8 287.3Z" fill="#f0f2ff" stroke="#3b82f6"></path>
        <path d="M632.8 218L565.5 207L555.5 282.3Z" fill="#9db2fb" stroke="#3b82f6"></path>
        <path d="M511.3 233L509.3 155.8L448 209Z" fill="#e0e4fe" stroke="#3b82f6"></path>
        <path d="M448 209L431 166.8L378.8 206Z" fill="#c0cbfd" stroke="#3b82f6"></path>
        <path d="M334.5 602.8L381.8 627.8L406.8 577.5Z" fill="#c0cbfd" stroke="#3b82f6"></path>
        <path d="M334.5 602.8L406.8 577.5L328.5 545.5Z" fill="#7599f9" stroke="#3b82f6"></path>
        <path d="M281.3 561.5L334.5 602.8L328.5 545.5Z" fill="#5c8df7" stroke="#3b82f6"></path>
        <path d="M602.8 603.8L657 547.5L620.8 552.5Z" fill="#5c8df7" stroke="#3b82f6"></path>
        <path d="M620.8 552.5L657 547.5L656 521.3Z" fill="#7599f9" stroke="#3b82f6"></path>
        <path d="M747.3 435L726.3 411.8L675 440Z" fill="#5c8df7" stroke="#3b82f6"></path>
        <path d="M566.5 625.8L602.8 603.8L569.5 546.5Z" fill="#ffffff" stroke="#3b82f6"></path>
        <path d="M559.5 657L566.5 625.8L503.3 623.8Z" fill="#8aa5fa" stroke="#3b82f6"></path>
        <path d="M503.3 623.8L566.5 625.8L569.5 546.5Z" fill="#8aa5fa" stroke="#3b82f6"></path>
        <path d="M220 375.8L264.3 433L288.3 394.8Z" fill="#f0f2ff" stroke="#3b82f6"></path>
        <path d="M264.3 433L230 513.3L285.3 510.3Z" fill="#c0cbfd" stroke="#3b82f6"></path>
        <path d="M285.3 510.3L281.3 561.5L328.5 545.5Z" fill="#f0f2ff" stroke="#3b82f6"></path>
        <path d="M230 513.3L281.3 561.5L285.3 510.3Z" fill="#f0f2ff" stroke="#3b82f6"></path>
        <path d="M344.5 227L267.3 276.3L337.5 288.3Z" fill="#ffffff" stroke="#3b82f6"></path>
        <path d="M269.3 343.5L220 375.8L288.3 394.8Z" fill="#e0e4fe" stroke="#3b82f6"></path>
        <path d="M623.8 152.8L553.5 186.8L565.5 207Z" fill="#e0e4fe" stroke="#3b82f6"></path>
        <path d="M565.5 207L553.5 186.8L511.3 233Z" fill="#8aa5fa" stroke="#3b82f6"></path>
        <path d="M438 675L494.3 659L448 634.8Z" fill="#e0e4fe" stroke="#3b82f6"></path>
        <path d="M448 634.8L494.3 659L503.3 623.8Z" fill="#e0e4fe" stroke="#3b82f6"></path>
        <path d="M509.3 155.8L431 166.8L448 209Z" fill="#ffffff" stroke="#3b82f6"></path>
        <path d="M378.8 206L352.5 182.8L344.5 227Z" fill="#7599f9" stroke="#3b82f6"></path>
        <path d="M344.5 227L265.3 208L267.3 276.3Z" fill="#7599f9" stroke="#3b82f6"></path>
        <path d="M210 344.5L220 375.8L269.3 343.5Z" fill="#c0cbfd" stroke="#3b82f6"></path>
        <path d="M680 353.5L684 291.3L636.8 296.3Z" fill="#7599f9" stroke="#3b82f6"></path>
        <path d="M636.8 296.3L632.8 218L555.5 282.3Z" fill="#e0e4fe" stroke="#3b82f6"></path>
        <path d="M741.3 344.5L684 291.3L680 353.5Z" fill="#e0e4fe" stroke="#3b82f6"></path>
        <path d="M665 224L632.8 218L636.8 296.3Z" fill="#afbefc" stroke="#3b82f6"></path>
        <path d="M410.8 149.8L352.5 182.8L378.8 206Z" fill="#f0f2ff" stroke="#3b82f6"></path>
        <path d="M230 432L230 513.3L264.3 433Z" fill="#f0f2ff" stroke="#3b82f6"></path>
        <path d="M209 546.5L230 513.3L179.8 509.3Z" fill="#9db2fb" stroke="#3b82f6"></path>
        <path d="M732.3 501.3L675 440L656 521.3Z" fill="#c0cbfd" stroke="#3b82f6"></path>
        <path d="M675 440L726.3 411.8L665 388.8Z" fill="#ffffff" stroke="#3b82f6"></path>
        <path d="M516.3 115.5L509.3 155.8L555.5 109.5Z" fill="#3b82f6" stroke="#3b82f6"></path>
        <path d="M553.5 186.8L509.3 155.8L511.3 233Z" fill="#8aa5fa" stroke="#3b82f6"></path>
        <path d="M494.3 659L559.5 657L503.3 623.8Z" fill="#9db2fb" stroke="#3b82f6"></path>
        <path d="M566.5 625.8L629.8 665L602.8 603.8Z" fill="#c0cbfd" stroke="#3b82f6"></path>
        <path d="M739.3 547.5L656 521.3L657 547.5Z" fill="#e0e4fe" stroke="#3b82f6"></path>
        <path d="M223 233L237 282.3L267.3 276.3Z" fill="#9db2fb" stroke="#3b82f6"></path>
        <path d="M267.3 276.3L237 282.3L269.3 343.5Z" fill="#d0d7fe" stroke="#3b82f6"></path>
        <path d="M409.8 689L438 675L381.8 627.8Z" fill="#8aa5fa" stroke="#3b82f6"></path>
        <path d="M381.8 627.8L438 675L448 634.8Z" fill="#c0cbfd" stroke="#3b82f6"></path>
        <path d="M494.3 659L519.3 718.3L559.5 657Z" fill="#d0d7fe" stroke="#3b82f6"></path>
        <path d="M237 282.3L210 344.5L269.3 343.5Z" fill="#d0d7fe" stroke="#3b82f6"></path>
        <path d="M169.8 449L230 513.3L230 432Z" fill="#7599f9" stroke="#3b82f6"></path>
        <path d="M467 121.5L410.8 149.8L431 166.8Z" fill="#8aa5fa" stroke="#3b82f6"></path>
        <path d="M431 166.8L410.8 149.8L378.8 206Z" fill="#9db2fb" stroke="#3b82f6"></path>
        <path d="M684 291.3L665 224L636.8 296.3Z" fill="#c0cbfd" stroke="#3b82f6"></path>
        <path d="M555.5 109.5L509.3 155.8L553.5 186.8Z" fill="#e0e4fe" stroke="#3b82f6"></path>
        <path d="M734.3 217L665 224L684 291.3Z" fill="#ffffff" stroke="#3b82f6"></path>
        <path d="M685 610.8L657 547.5L602.8 603.8Z" fill="#9db2fb" stroke="#3b82f6"></path>
        <path d="M739.3 547.5L732.3 501.3L656 521.3Z" fill="#e0e4fe" stroke="#3b82f6"></path>
        <path d="M323.5 691L409.8 689L381.8 627.8Z" fill="#e0e4fe" stroke="#3b82f6"></path>
        <path d="M438 675L519.3 718.3L494.3 659Z" fill="#5c8df7" stroke="#3b82f6"></path>
        <path d="M323.5 691L381.8 627.8L334.5 602.8Z" fill="#7599f9" stroke="#3b82f6"></path>
        <path d="M281.3 625.8L334.5 602.8L281.3 561.5Z" fill="#9db2fb" stroke="#3b82f6"></path>
        <path d="M239 612.8L281.3 625.8L281.3 561.5Z" fill="#ffffff" stroke="#3b82f6"></path>
        <path d="M732.3 501.3L747.3 435L675 440Z" fill="#e0e4fe" stroke="#3b82f6"></path>
        <path d="M726.3 411.8L741.3 344.5L680 353.5Z" fill="#3b82f6" stroke="#3b82f6"></path>
        <path d="M774.5 399.8L741.3 344.5L726.3 411.8Z" fill="#afbefc" stroke="#3b82f6"></path>
        <path d="M265.3 167.8L265.3 208L352.5 182.8Z" fill="#c0cbfd" stroke="#3b82f6"></path>
        <path d="M352.5 182.8L265.3 208L344.5 227Z" fill="#8aa5fa" stroke="#3b82f6"></path>
        <path d="M177.8 329.5L171.8 378.8L210 344.5Z" fill="#5c8df7" stroke="#3b82f6"></path>
        <path d="M171.8 378.8L230 432L220 375.8Z" fill="#f0f2ff" stroke="#3b82f6"></path>
        <path d="M230 513.3L209 546.5L281.3 561.5Z" fill="#7599f9" stroke="#3b82f6"></path>
        <path d="M516.3 115.5L467 121.5L509.3 155.8Z" fill="#afbefc" stroke="#3b82f6"></path>
        <path d="M509.3 155.8L467 121.5L431 166.8Z" fill="#9db2fb" stroke="#3b82f6"></path>
        <path d="M324.5 110.5L265.3 167.8L352.5 182.8Z" fill="#9db2fb" stroke="#3b82f6"></path>
        <path d="M629.8 665L685 610.8L602.8 603.8Z" fill="#afbefc" stroke="#3b82f6"></path>
        <path d="M177.8 329.5L210 344.5L237 282.3Z" fill="#e0e4fe" stroke="#3b82f6"></path>
        <path d="M210 344.5L171.8 378.8L220 375.8Z" fill="#c0cbfd" stroke="#3b82f6"></path>
        <path d="M171.8 378.8L169.8 449L230 432Z" fill="#ffffff" stroke="#3b82f6"></path>
        <path d="M158.8 277.3L177.8 329.5L237 282.3Z" fill="#7599f9" stroke="#3b82f6"></path>
        <path d="M615.8 728.3L629.8 665L559.5 657Z" fill="#c0cbfd" stroke="#3b82f6"></path>
        <path d="M559.5 657L629.8 665L566.5 625.8Z" fill="#e0e4fe" stroke="#3b82f6"></path>
        <path d="M623.8 152.8L565.5 207L632.8 218Z" fill="#5c8df7" stroke="#3b82f6"></path>
        <path d="M169.8 449L179.8 509.3L230 513.3Z" fill="#afbefc" stroke="#3b82f6"></path>
        <path d="M265.3 208L223 233L267.3 276.3Z" fill="#8aa5fa" stroke="#3b82f6"></path>
        <path d="M185.8 612.8L239 612.8L209 546.5Z" fill="#7599f9" stroke="#3b82f6"></path>
        <path d="M209 546.5L239 612.8L281.3 561.5Z" fill="#e0e4fe" stroke="#3b82f6"></path>
        <path d="M281.3 625.8L289.3 670L334.5 602.8Z" fill="#ffffff" stroke="#3b82f6"></path>
        <path d="M665 179.8L632.8 218L665 224Z" fill="#c0cbfd" stroke="#3b82f6"></path>
        <path d="M665 179.8L623.8 152.8L632.8 218Z" fill="#5c8df7" stroke="#3b82f6"></path>
        <path d="M685 610.8L739.3 547.5L657 547.5Z" fill="#3b82f6" stroke="#3b82f6"></path>
        <path d="M732.3 501.3L769.5 465L747.3 435Z" fill="#8aa5fa" stroke="#3b82f6"></path>
        <path d="M734.3 217L665 179.8L665 224Z" fill="#7599f9" stroke="#3b82f6"></path>
        <path d="M770.5 494.3L769.5 465L732.3 501.3Z" fill="#7599f9" stroke="#3b82f6"></path>
        <path d="M747.3 435L774.5 399.8L726.3 411.8Z" fill="#c0cbfd" stroke="#3b82f6"></path>
        <path d="M769.5 465L774.5 399.8L747.3 435Z" fill="#afbefc" stroke="#3b82f6"></path>
        <path d="M741.3 344.5L743.3 275.3L684 291.3Z" fill="#c0cbfd" stroke="#3b82f6"></path>
        <path d="M776.5 273.3L743.3 275.3L795.5 319.5Z" fill="#9db2fb" stroke="#3b82f6"></path>
        <path d="M439 739.3L519.3 718.3L438 675Z" fill="#ffffff" stroke="#3b82f6"></path>
        <path d="M230 689L289.3 670L281.3 625.8Z" fill="#8aa5fa" stroke="#3b82f6"></path>
        <path d="M409.8 689L439 739.3L438 675Z" fill="#e0e4fe" stroke="#3b82f6"></path>
        <path d="M289.3 670L323.5 691L334.5 602.8Z" fill="#c0cbfd" stroke="#3b82f6"></path>
        <path d="M739.3 547.5L770.5 494.3L732.3 501.3Z" fill="#d0d7fe" stroke="#3b82f6"></path>
        <path d="M832.8 344.5L795.5 319.5L774.5 399.8Z" fill="#afbefc" stroke="#3b82f6"></path>
        <path d="M623.8 152.8L555.5 109.5L553.5 186.8Z" fill="#9db2fb" stroke="#3b82f6"></path>
        <path d="M439 43.3L393.8 98.5L467 121.5Z" fill="#7599f9" stroke="#3b82f6"></path>
        <path d="M393.8 98.5L352.5 182.8L410.8 149.8Z" fill="#d0d7fe" stroke="#3b82f6"></path>
        <path d="M265.3 208L213 160.8L223 233Z" fill="#3b82f6" stroke="#3b82f6"></path>
        <path d="M509.3 50.3L467 121.5L516.3 115.5Z" fill="#c0cbfd" stroke="#3b82f6"></path>
        <path d="M467 121.5L393.8 98.5L410.8 149.8Z" fill="#3b82f6" stroke="#3b82f6"></path>
        <path d="M399.8 745.3L439 739.3L409.8 689Z" fill="#c0cbfd" stroke="#3b82f6"></path>
        <path d="M629.8 665L661 681L685 610.8Z" fill="#afbefc" stroke="#3b82f6"></path>
        <path d="M685 610.8L749.3 621.8L739.3 547.5Z" fill="#5c8df7" stroke="#3b82f6"></path>
        <path d="M739.3 547.5L793.5 575.5L770.5 494.3Z" fill="#f0f2ff" stroke="#3b82f6"></path>
        <path d="M615.8 728.3L661 681L629.8 665Z" fill="#f0f2ff" stroke="#3b82f6"></path>
        <path d="M743.3 275.3L734.3 217L684 291.3Z" fill="#7599f9" stroke="#3b82f6"></path>
        <path d="M693 118.5L603.8 96.5L623.8 152.8Z" fill="#5c8df7" stroke="#3b82f6"></path>
        <path d="M623.8 152.8L603.8 96.5L555.5 109.5Z" fill="#8aa5fa" stroke="#3b82f6"></path>
        <path d="M776.5 273.3L734.3 217L743.3 275.3Z" fill="#afbefc" stroke="#3b82f6"></path>
        <path d="M393.8 98.5L324.5 110.5L352.5 182.8Z" fill="#f0f2ff" stroke="#3b82f6"></path>
        <path d="M173.8 214L158.8 277.3L223 233Z" fill="#d0d7fe" stroke="#3b82f6"></path>
        <path d="M223 233L158.8 277.3L237 282.3Z" fill="#7599f9" stroke="#3b82f6"></path>
        <path d="M101.5 390.8L126.5 435L171.8 378.8Z" fill="#afbefc" stroke="#3b82f6"></path>
        <path d="M171.8 378.8L126.5 435L169.8 449Z" fill="#9db2fb" stroke="#3b82f6"></path>
        <path d="M523.3 786.5L559.5 738.3L519.3 718.3Z" fill="#d0d7fe" stroke="#3b82f6"></path>
        <path d="M519.3 718.3L559.5 738.3L559.5 657Z" fill="#e0e4fe" stroke="#3b82f6"></path>
        <path d="M336.5 727.3L399.8 745.3L409.8 689Z" fill="#afbefc" stroke="#3b82f6"></path>
        <path d="M439 739.3L523.3 786.5L519.3 718.3Z" fill="#5c8df7" stroke="#3b82f6"></path>
        <path d="M336.5 727.3L409.8 689L323.5 691Z" fill="#3b82f6" stroke="#3b82f6"></path>
        <path d="M291.3 737.3L336.5 727.3L323.5 691Z" fill="#c0cbfd" stroke="#3b82f6"></path>
        <path d="M291.3 737.3L323.5 691L289.3 670Z" fill="#7599f9" stroke="#3b82f6"></path>
        <path d="M111.5 344.5L171.8 378.8L177.8 329.5Z" fill="#9db2fb" stroke="#3b82f6"></path>
        <path d="M169.8 449L106.5 508.3L179.8 509.3Z" fill="#7599f9" stroke="#3b82f6"></path>
        <path d="M179.8 509.3L155.8 559.5L209 546.5Z" fill="#ffffff" stroke="#3b82f6"></path>
        <path d="M795.5 319.5L743.3 275.3L741.3 344.5Z" fill="#8aa5fa" stroke="#3b82f6"></path>
        <path d="M774.5 399.8L795.5 319.5L741.3 344.5Z" fill="#9db2fb" stroke="#3b82f6"></path>
        <path d="M832.8 344.5L774.5 399.8L860.8 406.8Z" fill="#9db2fb" stroke="#3b82f6"></path>
        <path d="M106.5 508.3L155.8 559.5L179.8 509.3Z" fill="#d0d7fe" stroke="#3b82f6"></path>
        <path d="M239 612.8L230 689L281.3 625.8Z" fill="#f0f2ff" stroke="#3b82f6"></path>
        <path d="M155.8 559.5L185.8 612.8L209 546.5Z" fill="#c0cbfd" stroke="#3b82f6"></path>
        <path d="M693 118.5L623.8 152.8L665 179.8Z" fill="#5c8df7" stroke="#3b82f6"></path>
        <path d="M555.5 109.5L550.5 70.3L516.3 115.5Z" fill="#d0d7fe" stroke="#3b82f6"></path>
        <path d="M559.5 738.3L615.8 728.3L559.5 657Z" fill="#afbefc" stroke="#3b82f6"></path>
        <path d="M746.3 657L685 610.8L661 681Z" fill="#f0f2ff" stroke="#3b82f6"></path>
        <path d="M746.3 657L749.3 621.8L685 610.8Z" fill="#ffffff" stroke="#3b82f6"></path>
        <path d="M603.8 96.5L550.5 70.3L555.5 109.5Z" fill="#5c8df7" stroke="#3b82f6"></path>
        <path d="M393.8 98.5L342.5 72.3L324.5 110.5Z" fill="#3b82f6" stroke="#3b82f6"></path>
        <path d="M213 160.8L173.8 214L223 233Z" fill="#f0f2ff" stroke="#3b82f6"></path>
        <path d="M213 160.8L265.3 208L265.3 167.8Z" fill="#3b82f6" stroke="#3b82f6"></path>
        <path d="M235 114.5L213 160.8L265.3 167.8Z" fill="#afbefc" stroke="#3b82f6"></path>
        <path d="M109.5 280.3L111.5 344.5L158.8 277.3Z" fill="#9db2fb" stroke="#3b82f6"></path>
        <path d="M158.8 277.3L111.5 344.5L177.8 329.5Z" fill="#7599f9" stroke="#3b82f6"></path>
        <path d="M400.8 47.3L342.5 72.3L393.8 98.5Z" fill="#ffffff" stroke="#3b82f6"></path>
        <path d="M324.5 110.5L269.3 105.5L265.3 167.8Z" fill="#9db2fb" stroke="#3b82f6"></path>
        <path d="M615.8 728.3L667 715.3L661 681Z" fill="#f0f2ff" stroke="#3b82f6"></path>
        <path d="M185.8 612.8L230 689L239 612.8Z" fill="#9db2fb" stroke="#3b82f6"></path>
        <path d="M288.3 60.3L269.3 105.5L324.5 110.5Z" fill="#5c8df7" stroke="#3b82f6"></path>
        <path d="M550.5 70.3L509.3 50.3L516.3 115.5Z" fill="#8aa5fa" stroke="#3b82f6"></path>
        <path d="M111.5 344.5L101.5 390.8L171.8 378.8Z" fill="#ffffff" stroke="#3b82f6"></path>
        <path d="M126.5 435L106.5 508.3L169.8 449Z" fill="#e0e4fe" stroke="#3b82f6"></path>
        <path d="M749.3 621.8L793.5 575.5L739.3 547.5Z" fill="#3b82f6" stroke="#3b82f6"></path>
        <path d="M848.8 457L774.5 399.8L769.5 465Z" fill="#e0e4fe" stroke="#3b82f6"></path>
        <path d="M795.5 602.8L793.5 575.5L749.3 621.8Z" fill="#5c8df7" stroke="#3b82f6"></path>
        <path d="M390.8 797.5L399.8 745.3L351.5 800.5Z" fill="#d0d7fe" stroke="#3b82f6"></path>
        <path d="M390.8 797.5L440 779.5L399.8 745.3Z" fill="#d0d7fe" stroke="#3b82f6"></path>
        <path d="M399.8 745.3L440 779.5L439 739.3Z" fill="#d0d7fe" stroke="#3b82f6"></path>
        <path d="M559.5 738.3L575.5 780.5L615.8 728.3Z" fill="#c0cbfd" stroke="#3b82f6"></path>
        <path d="M615.8 728.3L628.8 769.5L667 715.3Z" fill="#9db2fb" stroke="#3b82f6"></path>
        <path d="M230 689L291.3 737.3L289.3 670Z" fill="#d0d7fe" stroke="#3b82f6"></path>
        <path d="M798.5 159.8L737.3 161.8L734.3 217Z" fill="#afbefc" stroke="#3b82f6"></path>
        <path d="M734.3 217L737.3 161.8L665 179.8Z" fill="#9db2fb" stroke="#3b82f6"></path>
        <path d="M603.8 96.5L624.8 40.3L550.5 70.3Z" fill="#7599f9" stroke="#3b82f6"></path>
        <path d="M796.5 243L734.3 217L776.5 273.3Z" fill="#e0e4fe" stroke="#3b82f6"></path>
        <path d="M509.3 50.3L439 43.3L467 121.5Z" fill="#3b82f6" stroke="#3b82f6"></path>
        <path d="M439 43.3L400.8 47.3L393.8 98.5Z" fill="#5c8df7" stroke="#3b82f6"></path>
        <path d="M825.8 288.3L776.5 273.3L795.5 319.5Z" fill="#c0cbfd" stroke="#3b82f6"></path>
        <path d="M825.8 288.3L796.5 243L776.5 273.3Z" fill="#d0d7fe" stroke="#3b82f6"></path>
        <path d="M737.3 161.8L693 118.5L665 179.8Z" fill="#3b82f6" stroke="#3b82f6"></path>
        <path d="M569.5 0L507.3 0L509.3 50.3Z" fill="#8aa5fa" stroke="#3b82f6"></path>
        <path d="M732.3 725.3L746.3 657L661 681Z" fill="#5c8df7" stroke="#3b82f6"></path>
        <path d="M73.3 503.3L106.5 508.3L126.5 435Z" fill="#c0cbfd" stroke="#3b82f6"></path>
        <path d="M155.8 559.5L125.5 565.5L185.8 612.8Z" fill="#c0cbfd" stroke="#3b82f6"></path>
        <path d="M185.8 612.8L173.8 678L230 689Z" fill="#afbefc" stroke="#3b82f6"></path>
        <path d="M848.8 457L769.5 465L770.5 494.3Z" fill="#ffffff" stroke="#3b82f6"></path>
        <path d="M106.5 508.3L125.5 565.5L155.8 559.5Z" fill="#7599f9" stroke="#3b82f6"></path>
        <path d="M213 160.8L166.8 186.8L173.8 214Z" fill="#9db2fb" stroke="#3b82f6"></path>
        <path d="M93.5 223L109.5 280.3L158.8 277.3Z" fill="#afbefc" stroke="#3b82f6"></path>
        <path d="M170.8 123.5L166.8 186.8L213 160.8Z" fill="#d0d7fe" stroke="#3b82f6"></path>
        <path d="M209 42.3L235 114.5L269.3 105.5Z" fill="#d0d7fe" stroke="#3b82f6"></path>
        <path d="M269.3 105.5L235 114.5L265.3 167.8Z" fill="#e0e4fe" stroke="#3b82f6"></path>
        <path d="M288.3 60.3L324.5 110.5L342.5 72.3Z" fill="#8aa5fa" stroke="#3b82f6"></path>
        <path d="M440 779.5L523.3 786.5L439 739.3Z" fill="#5c8df7" stroke="#3b82f6"></path>
        <path d="M93.5 223L158.8 277.3L173.8 214Z" fill="#d0d7fe" stroke="#3b82f6"></path>
        <path d="M111.5 344.5L63.3 401.8L101.5 390.8Z" fill="#5c8df7" stroke="#3b82f6"></path>
        <path d="M746.3 657L795.5 602.8L749.3 621.8Z" fill="#d0d7fe" stroke="#3b82f6"></path>
        <path d="M842.8 513.3L848.8 457L770.5 494.3Z" fill="#afbefc" stroke="#3b82f6"></path>
        <path d="M832.8 344.5L825.8 288.3L795.5 319.5Z" fill="#5c8df7" stroke="#3b82f6"></path>
        <path d="M523.3 786.5L575.5 780.5L559.5 738.3Z" fill="#f0f2ff" stroke="#3b82f6"></path>
        <path d="M842.8 513.3L770.5 494.3L793.5 575.5Z" fill="#afbefc" stroke="#3b82f6"></path>
        <path d="M900 278.3L857.8 235L825.8 288.3Z" fill="#9db2fb" stroke="#3b82f6"></path>
        <path d="M846.8 555.5L842.8 513.3L793.5 575.5Z" fill="#5c8df7" stroke="#3b82f6"></path>
        <path d="M351.5 800.5L399.8 745.3L336.5 727.3Z" fill="#ffffff" stroke="#3b82f6"></path>
        <path d="M509.3 841.8L550.5 827.8L523.3 786.5Z" fill="#ffffff" stroke="#3b82f6"></path>
        <path d="M575.5 780.5L628.8 769.5L615.8 728.3Z" fill="#f0f2ff" stroke="#3b82f6"></path>
        <path d="M667 715.3L732.3 725.3L661 681Z" fill="#9db2fb" stroke="#3b82f6"></path>
        <path d="M223 772.5L284.3 779.5L291.3 737.3Z" fill="#8aa5fa" stroke="#3b82f6"></path>
        <path d="M284.3 779.5L351.5 800.5L336.5 727.3Z" fill="#f0f2ff" stroke="#3b82f6"></path>
        <path d="M128.5 671L173.8 678L185.8 612.8Z" fill="#c0cbfd" stroke="#3b82f6"></path>
        <path d="M330.5 0L288.3 60.3L342.5 72.3Z" fill="#e0e4fe" stroke="#3b82f6"></path>
        <path d="M900 410.8L860.8 406.8L900 457Z" fill="#8aa5fa" stroke="#3b82f6"></path>
        <path d="M848.8 457L860.8 406.8L774.5 399.8Z" fill="#d0d7fe" stroke="#3b82f6"></path>
        <path d="M742.3 100.5L693 118.5L737.3 161.8Z" fill="#f0f2ff" stroke="#3b82f6"></path>
        <path d="M742.3 100.5L680 74.3L693 118.5Z" fill="#ffffff" stroke="#3b82f6"></path>
        <path d="M693 118.5L680 74.3L603.8 96.5Z" fill="#3b82f6" stroke="#3b82f6"></path>
        <path d="M38.3 324.5L63.3 401.8L111.5 344.5Z" fill="#ffffff" stroke="#3b82f6"></path>
        <path d="M101.5 390.8L63.3 401.8L126.5 435Z" fill="#5c8df7" stroke="#3b82f6"></path>
        <path d="M106.5 508.3L54.3 561.5L125.5 565.5Z" fill="#9db2fb" stroke="#3b82f6"></path>
        <path d="M52.3 438L73.3 503.3L126.5 435Z" fill="#5c8df7" stroke="#3b82f6"></path>
        <path d="M125.5 565.5L100.5 617.8L185.8 612.8Z" fill="#3b82f6" stroke="#3b82f6"></path>
        <path d="M284.3 779.5L336.5 727.3L291.3 737.3Z" fill="#5c8df7" stroke="#3b82f6"></path>
        <path d="M680 74.3L624.8 40.3L603.8 96.5Z" fill="#d0d7fe" stroke="#3b82f6"></path>
        <path d="M507.3 0L431 0L439 43.3Z" fill="#9db2fb" stroke="#3b82f6"></path>
        <path d="M795.5 602.8L846.8 555.5L793.5 575.5Z" fill="#d0d7fe" stroke="#3b82f6"></path>
        <path d="M900 457L860.8 406.8L848.8 457Z" fill="#5c8df7" stroke="#3b82f6"></path>
        <path d="M854.8 611.8L846.8 555.5L795.5 602.8Z" fill="#9db2fb" stroke="#3b82f6"></path>
        <path d="M207 747.3L291.3 737.3L230 689Z" fill="#d0d7fe" stroke="#3b82f6"></path>
        <path d="M690 769.5L732.3 725.3L667 715.3Z" fill="#8aa5fa" stroke="#3b82f6"></path>
        <path d="M746.3 657L790.5 689L795.5 602.8Z" fill="#e0e4fe" stroke="#3b82f6"></path>
        <path d="M209 42.3L170.8 123.5L235 114.5Z" fill="#e0e4fe" stroke="#3b82f6"></path>
        <path d="M235 114.5L170.8 123.5L213 160.8Z" fill="#ffffff" stroke="#3b82f6"></path>
        <path d="M166.8 186.8L93.5 223L173.8 214Z" fill="#ffffff" stroke="#3b82f6"></path>
        <path d="M439 43.3L431 0L400.8 47.3Z" fill="#9db2fb" stroke="#3b82f6"></path>
        <path d="M400.8 47.3L380.8 0L342.5 72.3Z" fill="#afbefc" stroke="#3b82f6"></path>
        <path d="M507.3 0L439 43.3L509.3 50.3Z" fill="#ffffff" stroke="#3b82f6"></path>
        <path d="M63.3 401.8L52.3 438L126.5 435Z" fill="#9db2fb" stroke="#3b82f6"></path>
        <path d="M569.5 0L509.3 50.3L550.5 70.3Z" fill="#afbefc" stroke="#3b82f6"></path>
        <path d="M771.5 128.5L737.3 161.8L798.5 159.8Z" fill="#8aa5fa" stroke="#3b82f6"></path>
        <path d="M771.5 128.5L742.3 100.5L737.3 161.8Z" fill="#afbefc" stroke="#3b82f6"></path>
        <path d="M670 0L632.8 0L624.8 40.3Z" fill="#ffffff" stroke="#3b82f6"></path>
        <path d="M798.5 159.8L734.3 217L796.5 243Z" fill="#f0f2ff" stroke="#3b82f6"></path>
        <path d="M848.8 165.8L798.5 159.8L796.5 243Z" fill="#ffffff" stroke="#3b82f6"></path>
        <path d="M857.8 235L796.5 243L825.8 288.3Z" fill="#9db2fb" stroke="#3b82f6"></path>
        <path d="M115.5 151.8L93.5 223L166.8 186.8Z" fill="#e0e4fe" stroke="#3b82f6"></path>
        <path d="M109.5 280.3L56.3 299.3L111.5 344.5Z" fill="#ffffff" stroke="#3b82f6"></path>
        <path d="M63.3 401.8L0 383.8L52.3 438Z" fill="#d0d7fe" stroke="#3b82f6"></path>
        <path d="M54.3 561.5L106.5 508.3L73.3 503.3Z" fill="#ffffff" stroke="#3b82f6"></path>
        <path d="M54.3 561.5L100.5 617.8L125.5 565.5Z" fill="#afbefc" stroke="#3b82f6"></path>
        <path d="M160.8 723.3L207 747.3L230 689Z" fill="#7599f9" stroke="#3b82f6"></path>
        <path d="M682 837.8L690 769.5L628.8 769.5Z" fill="#8aa5fa" stroke="#3b82f6"></path>
        <path d="M628.8 769.5L690 769.5L667 715.3Z" fill="#d0d7fe" stroke="#3b82f6"></path>
        <path d="M607.8 847.8L628.8 769.5L575.5 780.5Z" fill="#d0d7fe" stroke="#3b82f6"></path>
        <path d="M431 0L380.8 0L400.8 47.3Z" fill="#d0d7fe" stroke="#3b82f6"></path>
        <path d="M288.3 60.3L209 42.3L269.3 105.5Z" fill="#e0e4fe" stroke="#3b82f6"></path>
        <path d="M160.8 723.3L230 689L173.8 678Z" fill="#f0f2ff" stroke="#3b82f6"></path>
        <path d="M509.3 841.8L523.3 786.5L440 779.5Z" fill="#f0f2ff" stroke="#3b82f6"></path>
        <path d="M523.3 786.5L550.5 827.8L575.5 780.5Z" fill="#8aa5fa" stroke="#3b82f6"></path>
        <path d="M509.3 841.8L440 779.5L445 853.8Z" fill="#ffffff" stroke="#3b82f6"></path>
        <path d="M100.5 617.8L128.5 671L185.8 612.8Z" fill="#d0d7fe" stroke="#3b82f6"></path>
        <path d="M65.3 227L56.3 299.3L109.5 280.3Z" fill="#c0cbfd" stroke="#3b82f6"></path>
        <path d="M632.8 0L569.5 0L624.8 40.3Z" fill="#c0cbfd" stroke="#3b82f6"></path>
        <path d="M624.8 40.3L569.5 0L550.5 70.3Z" fill="#7599f9" stroke="#3b82f6"></path>
        <path d="M769.5 749.3L790.5 689L732.3 725.3Z" fill="#c0cbfd" stroke="#3b82f6"></path>
        <path d="M732.3 725.3L790.5 689L746.3 657Z" fill="#8aa5fa" stroke="#3b82f6"></path>
        <path d="M900 337.5L825.8 288.3L832.8 344.5Z" fill="#8aa5fa" stroke="#3b82f6"></path>
        <path d="M445 853.8L440 779.5L390.8 797.5Z" fill="#9db2fb" stroke="#3b82f6"></path>
        <path d="M900 457L848.8 457L842.8 513.3Z" fill="#9db2fb" stroke="#3b82f6"></path>
        <path d="M860.8 406.8L900 337.5L832.8 344.5Z" fill="#c0cbfd" stroke="#3b82f6"></path>
        <path d="M168.8 797.5L223 772.5L207 747.3Z" fill="#8aa5fa" stroke="#3b82f6"></path>
        <path d="M207 747.3L223 772.5L291.3 737.3Z" fill="#e0e4fe" stroke="#3b82f6"></path>
        <path d="M355.5 856.8L385.8 849.8L351.5 800.5Z" fill="#afbefc" stroke="#3b82f6"></path>
        <path d="M385.8 849.8L445 853.8L390.8 797.5Z" fill="#d0d7fe" stroke="#3b82f6"></path>
        <path d="M380.8 0L330.5 0L342.5 72.3Z" fill="#f0f2ff" stroke="#3b82f6"></path>
        <path d="M128.5 671L160.8 723.3L173.8 678Z" fill="#f0f2ff" stroke="#3b82f6"></path>
        <path d="M900 521.3L900 457L842.8 513.3Z" fill="#afbefc" stroke="#3b82f6"></path>
        <path d="M900 521.3L842.8 513.3L846.8 555.5Z" fill="#afbefc" stroke="#3b82f6"></path>
        <path d="M839.8 674L854.8 611.8L795.5 602.8Z" fill="#9db2fb" stroke="#3b82f6"></path>
        <path d="M0 335.5L38.3 324.5L0 265.3Z" fill="#3b82f6" stroke="#3b82f6"></path>
        <path d="M56.3 299.3L38.3 324.5L111.5 344.5Z" fill="#7599f9" stroke="#3b82f6"></path>
        <path d="M170.8 123.5L115.5 151.8L166.8 186.8Z" fill="#f0f2ff" stroke="#3b82f6"></path>
        <path d="M93.5 223L65.3 227L109.5 280.3Z" fill="#f0f2ff" stroke="#3b82f6"></path>
        <path d="M105.5 104.5L115.5 151.8L170.8 123.5Z" fill="#8aa5fa" stroke="#3b82f6"></path>
        <path d="M100.5 617.8L45.3 657L128.5 671Z" fill="#f0f2ff" stroke="#3b82f6"></path>
        <path d="M128.5 671L106.5 727.3L160.8 723.3Z" fill="#9db2fb" stroke="#3b82f6"></path>
        <path d="M0 513.3L54.3 561.5L73.3 503.3Z" fill="#afbefc" stroke="#3b82f6"></path>
        <path d="M0 462L73.3 503.3L52.3 438Z" fill="#afbefc" stroke="#3b82f6"></path>
        <path d="M900 410.8L900 337.5L860.8 406.8Z" fill="#afbefc" stroke="#3b82f6"></path>
        <path d="M385.8 849.8L390.8 797.5L351.5 800.5Z" fill="#ffffff" stroke="#3b82f6"></path>
        <path d="M54.3 186.8L65.3 227L93.5 223Z" fill="#afbefc" stroke="#3b82f6"></path>
        <path d="M298.3 835.8L351.5 800.5L284.3 779.5Z" fill="#e0e4fe" stroke="#3b82f6"></path>
        <path d="M670 0L624.8 40.3L680 74.3Z" fill="#e0e4fe" stroke="#3b82f6"></path>
        <path d="M805.5 64.3L737.3 57.3L742.3 100.5Z" fill="#8aa5fa" stroke="#3b82f6"></path>
        <path d="M742.3 100.5L737.3 57.3L680 74.3Z" fill="#ffffff" stroke="#3b82f6"></path>
        <path d="M805.5 64.3L742.3 100.5L771.5 128.5Z" fill="#7599f9" stroke="#3b82f6"></path>
        <path d="M805.5 64.3L771.5 128.5L856.8 111.5Z" fill="#f0f2ff" stroke="#3b82f6"></path>
        <path d="M900 548.5L900 521.3L846.8 555.5Z" fill="#3b82f6" stroke="#3b82f6"></path>
        <path d="M235 0L209 42.3L288.3 60.3Z" fill="#5c8df7" stroke="#3b82f6"></path>
        <path d="M743.3 791.5L769.5 749.3L732.3 725.3Z" fill="#d0d7fe" stroke="#3b82f6"></path>
        <path d="M790.5 689L839.8 674L795.5 602.8Z" fill="#c0cbfd" stroke="#3b82f6"></path>
        <path d="M743.3 791.5L732.3 725.3L690 769.5Z" fill="#c0cbfd" stroke="#3b82f6"></path>
        <path d="M330.5 0L278.3 0L288.3 60.3Z" fill="#afbefc" stroke="#3b82f6"></path>
        <path d="M900 337.5L900 278.3L825.8 288.3Z" fill="#d0d7fe" stroke="#3b82f6"></path>
        <path d="M857.8 235L848.8 165.8L796.5 243Z" fill="#3b82f6" stroke="#3b82f6"></path>
        <path d="M900 635.8L900 548.5L854.8 611.8Z" fill="#afbefc" stroke="#3b82f6"></path>
        <path d="M854.8 611.8L900 548.5L846.8 555.5Z" fill="#9db2fb" stroke="#3b82f6"></path>
        <path d="M228 839.8L298.3 835.8L284.3 779.5Z" fill="#c0cbfd" stroke="#3b82f6"></path>
        <path d="M228 839.8L284.3 779.5L223 772.5Z" fill="#5c8df7" stroke="#3b82f6"></path>
        <path d="M900 223L848.8 165.8L857.8 235Z" fill="#f0f2ff" stroke="#3b82f6"></path>
        <path d="M842.8 722.3L839.8 674L790.5 689Z" fill="#8aa5fa" stroke="#3b82f6"></path>
        <path d="M566.5 900L607.8 847.8L550.5 827.8Z" fill="#afbefc" stroke="#3b82f6"></path>
        <path d="M550.5 827.8L607.8 847.8L575.5 780.5Z" fill="#e0e4fe" stroke="#3b82f6"></path>
        <path d="M566.5 900L550.5 827.8L509.3 841.8Z" fill="#ffffff" stroke="#3b82f6"></path>
        <path d="M298.3 835.8L355.5 856.8L351.5 800.5Z" fill="#ffffff" stroke="#3b82f6"></path>
        <path d="M409.8 900L442 900L445 853.8Z" fill="#c0cbfd" stroke="#3b82f6"></path>
        <path d="M721.3 0L670 0L680 74.3Z" fill="#c0cbfd" stroke="#3b82f6"></path>
        <path d="M0 335.5L0 383.8L38.3 324.5Z" fill="#5c8df7" stroke="#3b82f6"></path>
        <path d="M38.3 324.5L0 383.8L63.3 401.8Z" fill="#9db2fb" stroke="#3b82f6"></path>
        <path d="M0 383.8L0 462L52.3 438Z" fill="#8aa5fa" stroke="#3b82f6"></path>
        <path d="M735.3 830.8L743.3 791.5L690 769.5Z" fill="#afbefc" stroke="#3b82f6"></path>
        <path d="M769.5 749.3L842.8 722.3L790.5 689Z" fill="#afbefc" stroke="#3b82f6"></path>
        <path d="M151.8 0L161.8 55.3L209 42.3Z" fill="#5c8df7" stroke="#3b82f6"></path>
        <path d="M209 42.3L161.8 55.3L170.8 123.5Z" fill="#7599f9" stroke="#3b82f6"></path>
        <path d="M115.5 151.8L54.3 186.8L93.5 223Z" fill="#c0cbfd" stroke="#3b82f6"></path>
        <path d="M70.3 120.5L54.3 186.8L115.5 151.8Z" fill="#5c8df7" stroke="#3b82f6"></path>
        <path d="M0 265.3L38.3 324.5L56.3 299.3Z" fill="#3b82f6" stroke="#3b82f6"></path>
        <path d="M0 265.3L56.3 299.3L65.3 227Z" fill="#c0cbfd" stroke="#3b82f6"></path>
        <path d="M278.3 0L235 0L288.3 60.3Z" fill="#e0e4fe" stroke="#3b82f6"></path>
        <path d="M900 278.3L900 223L857.8 235Z" fill="#afbefc" stroke="#3b82f6"></path>
        <path d="M161.8 55.3L105.5 104.5L170.8 123.5Z" fill="#8aa5fa" stroke="#3b82f6"></path>
        <path d="M0 610.8L44.3 634.8L54.3 561.5Z" fill="#7599f9" stroke="#3b82f6"></path>
        <path d="M54.3 561.5L44.3 634.8L100.5 617.8Z" fill="#9db2fb" stroke="#3b82f6"></path>
        <path d="M160.8 723.3L168.8 797.5L207 747.3Z" fill="#5c8df7" stroke="#3b82f6"></path>
        <path d="M0 462L0 513.3L73.3 503.3Z" fill="#5c8df7" stroke="#3b82f6"></path>
        <path d="M607.8 847.8L682 837.8L628.8 769.5Z" fill="#3b82f6" stroke="#3b82f6"></path>
        <path d="M47.3 713.3L106.5 727.3L128.5 671Z" fill="#5c8df7" stroke="#3b82f6"></path>
        <path d="M0 513.3L0 545.5L54.3 561.5Z" fill="#3b82f6" stroke="#3b82f6"></path>
        <path d="M737.3 57.3L721.3 0L680 74.3Z" fill="#8aa5fa" stroke="#3b82f6"></path>
        <path d="M784.5 0L721.3 0L737.3 57.3Z" fill="#ffffff" stroke="#3b82f6"></path>
        <path d="M771.5 128.5L798.5 159.8L856.8 111.5Z" fill="#d0d7fe" stroke="#3b82f6"></path>
        <path d="M100.5 783.5L168.8 797.5L160.8 723.3Z" fill="#ffffff" stroke="#3b82f6"></path>
        <path d="M409.8 900L385.8 849.8L355.5 856.8Z" fill="#7599f9" stroke="#3b82f6"></path>
        <path d="M44.3 634.8L45.3 657L100.5 617.8Z" fill="#5c8df7" stroke="#3b82f6"></path>
        <path d="M0 670L45.3 657L44.3 634.8Z" fill="#3b82f6" stroke="#3b82f6"></path>
        <path d="M856.8 111.5L798.5 159.8L848.8 165.8Z" fill="#9db2fb" stroke="#3b82f6"></path>
        <path d="M798.5 782.5L769.5 749.3L743.3 791.5Z" fill="#afbefc" stroke="#3b82f6"></path>
        <path d="M798.5 782.5L842.8 722.3L769.5 749.3Z" fill="#3b82f6" stroke="#3b82f6"></path>
        <path d="M839.8 674L900 635.8L854.8 611.8Z" fill="#c0cbfd" stroke="#3b82f6"></path>
        <path d="M409.8 900L445 853.8L385.8 849.8Z" fill="#e0e4fe" stroke="#3b82f6"></path>
        <path d="M445 853.8L492.3 900L509.3 841.8Z" fill="#9db2fb" stroke="#3b82f6"></path>
        <path d="M607.8 847.8L621.8 900L682 837.8Z" fill="#ffffff" stroke="#3b82f6"></path>
        <path d="M323.5 900L355.5 856.8L298.3 835.8Z" fill="#e0e4fe" stroke="#3b82f6"></path>
        <path d="M900 678L900 635.8L839.8 674Z" fill="#d0d7fe" stroke="#3b82f6"></path>
        <path d="M442 900L492.3 900L445 853.8Z" fill="#3b82f6" stroke="#3b82f6"></path>
        <path d="M0 214L65.3 227L54.3 186.8Z" fill="#8aa5fa" stroke="#3b82f6"></path>
        <path d="M0 214L0 265.3L65.3 227Z" fill="#afbefc" stroke="#3b82f6"></path>
        <path d="M168.8 797.5L228 839.8L223 772.5Z" fill="#ffffff" stroke="#3b82f6"></path>
        <path d="M323.5 900L409.8 900L355.5 856.8Z" fill="#3b82f6" stroke="#3b82f6"></path>
        <path d="M105.5 73.3L70.3 120.5L105.5 104.5Z" fill="#8aa5fa" stroke="#3b82f6"></path>
        <path d="M105.5 104.5L70.3 120.5L115.5 151.8Z" fill="#8aa5fa" stroke="#3b82f6"></path>
        <path d="M105.5 73.3L105.5 104.5L161.8 55.3Z" fill="#5c8df7" stroke="#3b82f6"></path>
        <path d="M900 157.8L856.8 111.5L848.8 165.8Z" fill="#f0f2ff" stroke="#3b82f6"></path>
        <path d="M126.5 0L105.5 73.3L161.8 55.3Z" fill="#d0d7fe" stroke="#3b82f6"></path>
        <path d="M692 900L735.3 830.8L682 837.8Z" fill="#3b82f6" stroke="#3b82f6"></path>
        <path d="M682 837.8L735.3 830.8L690 769.5Z" fill="#3b82f6" stroke="#3b82f6"></path>
        <path d="M779.5 833.8L798.5 782.5L743.3 791.5Z" fill="#e0e4fe" stroke="#3b82f6"></path>
        <path d="M492.3 900L566.5 900L509.3 841.8Z" fill="#9db2fb" stroke="#3b82f6"></path>
        <path d="M900 223L900 157.8L848.8 165.8Z" fill="#9db2fb" stroke="#3b82f6"></path>
        <path d="M0 545.5L0 610.8L54.3 561.5Z" fill="#ffffff" stroke="#3b82f6"></path>
        <path d="M45.3 657L47.3 713.3L128.5 671Z" fill="#ffffff" stroke="#3b82f6"></path>
        <path d="M100.5 783.5L154.8 825.8L168.8 797.5Z" fill="#afbefc" stroke="#3b82f6"></path>
        <path d="M0 154.8L54.3 186.8L70.3 120.5Z" fill="#9db2fb" stroke="#3b82f6"></path>
        <path d="M0 154.8L0 214L54.3 186.8Z" fill="#7599f9" stroke="#3b82f6"></path>
        <path d="M294.3 900L323.5 900L298.3 835.8Z" fill="#9db2fb" stroke="#3b82f6"></path>
        <path d="M900 739.3L900 678L842.8 722.3Z" fill="#7599f9" stroke="#3b82f6"></path>
        <path d="M842.8 722.3L900 678L839.8 674Z" fill="#f0f2ff" stroke="#3b82f6"></path>
        <path d="M566.5 900L621.8 900L607.8 847.8Z" fill="#8aa5fa" stroke="#3b82f6"></path>
        <path d="M900 66.3L840.8 61.3L856.8 111.5Z" fill="#e0e4fe" stroke="#3b82f6"></path>
        <path d="M856.8 111.5L840.8 61.3L805.5 64.3Z" fill="#f0f2ff" stroke="#3b82f6"></path>
        <path d="M805.5 64.3L784.5 0L737.3 57.3Z" fill="#afbefc" stroke="#3b82f6"></path>
        <path d="M0 670L47.3 713.3L45.3 657Z" fill="#8aa5fa" stroke="#3b82f6"></path>
        <path d="M206 900L294.3 900L228 839.8Z" fill="#ffffff" stroke="#3b82f6"></path>
        <path d="M228 839.8L294.3 900L298.3 835.8Z" fill="#5c8df7" stroke="#3b82f6"></path>
        <path d="M154.8 825.8L228 839.8L168.8 797.5Z" fill="#3b82f6" stroke="#3b82f6"></path>
        <path d="M100.5 783.5L160.8 723.3L106.5 727.3Z" fill="#c0cbfd" stroke="#3b82f6"></path>
        <path d="M235 0L151.8 0L209 42.3Z" fill="#f0f2ff" stroke="#3b82f6"></path>
        <path d="M0 103.5L0 154.8L70.3 120.5Z" fill="#5c8df7" stroke="#3b82f6"></path>
        <path d="M50.3 771.5L100.5 783.5L106.5 727.3Z" fill="#8aa5fa" stroke="#3b82f6"></path>
        <path d="M854.8 0L784.5 0L805.5 64.3Z" fill="#afbefc" stroke="#3b82f6"></path>
        <path d="M735.3 830.8L779.5 833.8L743.3 791.5Z" fill="#7599f9" stroke="#3b82f6"></path>
        <path d="M798.5 782.5L824.8 803.5L842.8 722.3Z" fill="#8aa5fa" stroke="#3b82f6"></path>
        <path d="M742.3 900L779.5 833.8L735.3 830.8Z" fill="#5c8df7" stroke="#3b82f6"></path>
        <path d="M900 157.8L900 109.5L856.8 111.5Z" fill="#8aa5fa" stroke="#3b82f6"></path>
        <path d="M840.8 61.3L854.8 0L805.5 64.3Z" fill="#d0d7fe" stroke="#3b82f6"></path>
        <path d="M779.5 833.8L824.8 803.5L798.5 782.5Z" fill="#8aa5fa" stroke="#3b82f6"></path>
        <path d="M0 610.8L0 670L44.3 634.8Z" fill="#5c8df7" stroke="#3b82f6"></path>
        <path d="M47.3 713.3L50.3 771.5L106.5 727.3Z" fill="#e0e4fe" stroke="#3b82f6"></path>
        <path d="M55.3 49.3L70.3 120.5L105.5 73.3Z" fill="#9db2fb" stroke="#3b82f6"></path>
        <path d="M151.8 0L126.5 0L161.8 55.3Z" fill="#ffffff" stroke="#3b82f6"></path>
        <path d="M621.8 900L692 900L682 837.8Z" fill="#f0f2ff" stroke="#3b82f6"></path>
        <path d="M779.5 833.8L860.8 836.8L824.8 803.5Z" fill="#c0cbfd" stroke="#3b82f6"></path>
        <path d="M900 774.5L900 739.3L842.8 722.3Z" fill="#ffffff" stroke="#3b82f6"></path>
        <path d="M126.5 0L55.3 49.3L105.5 73.3Z" fill="#c0cbfd" stroke="#3b82f6"></path>
        <path d="M0 769.5L50.3 771.5L47.3 713.3Z" fill="#f0f2ff" stroke="#3b82f6"></path>
        <path d="M100.5 783.5L106.5 837.8L154.8 825.8Z" fill="#e0e4fe" stroke="#3b82f6"></path>
        <path d="M186.8 900L206 900L228 839.8Z" fill="#e0e4fe" stroke="#3b82f6"></path>
        <path d="M186.8 900L228 839.8L154.8 825.8Z" fill="#afbefc" stroke="#3b82f6"></path>
        <path d="M900 109.5L900 66.3L856.8 111.5Z" fill="#3b82f6" stroke="#3b82f6"></path>
        <path d="M0 670L0 715.3L47.3 713.3Z" fill="#9db2fb" stroke="#3b82f6"></path>
        <path d="M56.3 839.8L106.5 837.8L100.5 783.5Z" fill="#c0cbfd" stroke="#3b82f6"></path>
        <path d="M56.3 839.8L100.5 783.5L50.3 771.5Z" fill="#8aa5fa" stroke="#3b82f6"></path>
        <path d="M55.3 49.3L0 103.5L70.3 120.5Z" fill="#7599f9" stroke="#3b82f6"></path>
        <path d="M692 900L742.3 900L735.3 830.8Z" fill="#f0f2ff" stroke="#3b82f6"></path>
        <path d="M824.8 803.5L900 774.5L842.8 722.3Z" fill="#ffffff" stroke="#3b82f6"></path>
        <path d="M130.5 900L186.8 900L154.8 825.8Z" fill="#f0f2ff" stroke="#3b82f6"></path>
        <path d="M860.8 836.8L900 774.5L824.8 803.5Z" fill="#5c8df7" stroke="#3b82f6"></path>
        <path d="M900 66.3L854.8 0L840.8 61.3Z" fill="#ffffff" stroke="#3b82f6"></path>
        <path d="M786.5 900L860.8 836.8L779.5 833.8Z" fill="#e0e4fe" stroke="#3b82f6"></path>
        <path d="M0 0L0 63.3L55.3 49.3Z" fill="#7599f9" stroke="#3b82f6"></path>
        <path d="M55.3 49.3L0 63.3L0 103.5Z" fill="#5c8df7" stroke="#3b82f6"></path>
        <path d="M742.3 900L786.5 900L779.5 833.8Z" fill="#f0f2ff" stroke="#3b82f6"></path>
        <path d="M0 715.3L0 769.5L47.3 713.3Z" fill="#ffffff" stroke="#3b82f6"></path>
        <path d="M106.5 837.8L130.5 900L154.8 825.8Z" fill="#f0f2ff" stroke="#3b82f6"></path>
        <path d="M126.5 0L46.3 0L55.3 49.3Z" fill="#e0e4fe" stroke="#3b82f6"></path>
        <path d="M62.3 900L130.5 900L106.5 837.8Z" fill="#afbefc" stroke="#3b82f6"></path>
        <path d="M0 769.5L56.3 839.8L50.3 771.5Z" fill="#f0f2ff" stroke="#3b82f6"></path>
        <path d="M900 66.3L900 0L854.8 0Z" fill="#afbefc" stroke="#3b82f6"></path>
        <path d="M900 900L900 830.8L860.8 836.8Z" fill="#8aa5fa" stroke="#3b82f6"></path>
        <path d="M860.8 836.8L900 830.8L900 774.5Z" fill="#7599f9" stroke="#3b82f6"></path>
        <path d="M786.5 900L851.8 900L860.8 836.8Z" fill="#c0cbfd" stroke="#3b82f6"></path>
        <path d="M46.3 0L0 0L55.3 49.3Z" fill="#afbefc" stroke="#3b82f6"></path>
        <path d="M0 855.8L62.3 900L56.3 839.8Z" fill="#3b82f6" stroke="#3b82f6"></path>
        <path d="M56.3 839.8L62.3 900L106.5 837.8Z" fill="#d0d7fe" stroke="#3b82f6"></path>
        <path d="M0 769.5L0 855.8L56.3 839.8Z" fill="#8aa5fa" stroke="#3b82f6"></path>
        <path d="M851.8 900L900 900L860.8 836.8Z" fill="#d0d7fe" stroke="#3b82f6"></path>
        <path d="M0 855.8L0 900L62.3 900Z" fill="#5c8df7" stroke="#3b82f6"></path>
    </g>
</svg>