<svg id="visual" viewBox="0 0 960 540" width="960" height="540" xmlns="http://www.w3.org/2000/svg"
    xmlns:xlink="http://www.w3.org/1999/xlink" version="1.1">
    <g stroke-width="1" stroke-linejoin="bevel" opacity="0.3">
        <path d="M511.6 304.6L593.9 307.6L534.6 245.4Z" fill="#0040a7" stroke="#3b82f6"></path>
        <path d="M593.9 307.6L599.9 232.4L534.6 245.4Z" fill="#000000" stroke="#3b82f6"></path>
        <path d="M511.6 304.6L542.6 366.7L593.9 307.6Z" fill="#003396" stroke="#3b82f6"></path>
        <path d="M542.6 366.7L601.9 395.7L593.9 307.6Z" fill="#000f67" stroke="#3b82f6"></path>
        <path d="M697.2 217.4L621.9 163.3L599.9 232.4Z" fill="#1e5ac6" stroke="#3b82f6"></path>
        <path d="M524.6 164.3L443.4 229.4L534.6 245.4Z" fill="#1e5ac6" stroke="#3b82f6"></path>
        <path d="M534.6 245.4L443.4 229.4L511.6 304.6Z" fill="#001b76" stroke="#3b82f6"></path>
        <path d="M511.6 304.6L451.4 382.7L542.6 366.7Z" fill="#3b82f6" stroke="#3b82f6"></path>
        <path d="M599.9 232.4L524.6 164.3L534.6 245.4Z" fill="#124db7" stroke="#3b82f6"></path>
        <path d="M443.4 229.4L417.4 307.6L511.6 304.6Z" fill="#0040a7" stroke="#3b82f6"></path>
        <path d="M542.6 366.7L591.9 445.9L601.9 395.7Z" fill="#003396" stroke="#3b82f6"></path>
        <path d="M417.4 307.6L451.4 382.7L511.6 304.6Z" fill="#3274e6" stroke="#3b82f6"></path>
        <path d="M699.2 290.6L599.9 232.4L593.9 307.6Z" fill="#3274e6" stroke="#3b82f6"></path>
        <path d="M599.9 232.4L621.9 163.3L524.6 164.3Z" fill="#3b82f6" stroke="#3b82f6"></path>
        <path d="M694.2 381.7L699.2 290.6L593.9 307.6Z" fill="#000000" stroke="#3b82f6"></path>
        <path d="M699.2 290.6L697.2 217.4L599.9 232.4Z" fill="#002686" stroke="#3b82f6"></path>
        <path d="M526.6 459.9L591.9 445.9L542.6 366.7Z" fill="#124db7" stroke="#3b82f6"></path>
        <path d="M601.9 395.7L694.2 381.7L593.9 307.6Z" fill="#124db7" stroke="#3b82f6"></path>
        <path d="M678.2 445.9L694.2 381.7L601.9 395.7Z" fill="#3b82f6" stroke="#3b82f6"></path>
        <path d="M513.6 78.1L450.4 146.3L524.6 164.3Z" fill="#1e5ac6" stroke="#3b82f6"></path>
        <path d="M524.6 164.3L450.4 146.3L443.4 229.4Z" fill="#3274e6" stroke="#3b82f6"></path>
        <path d="M443.4 229.4L358.1 212.4L417.4 307.6Z" fill="#1e5ac6" stroke="#3b82f6"></path>
        <path d="M451.4 382.7L526.6 459.9L542.6 366.7Z" fill="#000000" stroke="#3b82f6"></path>
        <path d="M338.1 381.7L444.4 452.9L451.4 382.7Z" fill="#0040a7" stroke="#3b82f6"></path>
        <path d="M451.4 382.7L444.4 452.9L526.6 459.9Z" fill="#000f67" stroke="#3b82f6"></path>
        <path d="M591.9 445.9L678.2 445.9L601.9 395.7Z" fill="#1e5ac6" stroke="#3b82f6"></path>
        <path d="M600.9 540L678.2 445.9L591.9 445.9Z" fill="#3274e6" stroke="#3b82f6"></path>
        <path d="M702.2 147.3L605.9 91.1L621.9 163.3Z" fill="#003396" stroke="#3b82f6"></path>
        <path d="M621.9 163.3L605.9 91.1L524.6 164.3Z" fill="#000000" stroke="#3b82f6"></path>
        <path d="M697.2 217.4L702.2 147.3L621.9 163.3Z" fill="#003396" stroke="#3b82f6"></path>
        <path d="M781.5 173.3L702.2 147.3L697.2 217.4Z" fill="#003396" stroke="#3b82f6"></path>
        <path d="M450.4 146.3L358.1 212.4L443.4 229.4Z" fill="#001b76" stroke="#3b82f6"></path>
        <path d="M417.4 307.6L338.1 381.7L451.4 382.7Z" fill="#3274e6" stroke="#3b82f6"></path>
        <path d="M358.1 212.4L344.1 294.6L417.4 307.6Z" fill="#0040a7" stroke="#3b82f6"></path>
        <path d="M605.9 91.1L513.6 78.1L524.6 164.3Z" fill="#1e5ac6" stroke="#3b82f6"></path>
        <path d="M450.4 146.3L342.1 150.3L358.1 212.4Z" fill="#000000" stroke="#3b82f6"></path>
        <path d="M785.5 309.6L776.5 233.4L699.2 290.6Z" fill="#0040a7" stroke="#3b82f6"></path>
        <path d="M699.2 290.6L776.5 233.4L697.2 217.4Z" fill="#000f67" stroke="#3b82f6"></path>
        <path d="M785.5 309.6L699.2 290.6L694.2 381.7Z" fill="#3274e6" stroke="#3b82f6"></path>
        <path d="M792.5 404.7L785.5 309.6L694.2 381.7Z" fill="#003396" stroke="#3b82f6"></path>
        <path d="M344.1 294.6L338.1 381.7L417.4 307.6Z" fill="#003396" stroke="#3b82f6"></path>
        <path d="M513.6 78.1L433.4 74.1L450.4 146.3Z" fill="#000f67" stroke="#3b82f6"></path>
        <path d="M433.4 74.1L342.1 150.3L450.4 146.3Z" fill="#1e5ac6" stroke="#3b82f6"></path>
        <path d="M358.1 212.4L275.8 246.4L344.1 294.6Z" fill="#0040a7" stroke="#3b82f6"></path>
        <path d="M344.1 294.6L266.8 366.7L338.1 381.7Z" fill="#2967d6" stroke="#3b82f6"></path>
        <path d="M879.7 212.4L781.5 173.3L776.5 233.4Z" fill="#002686" stroke="#3b82f6"></path>
        <path d="M776.5 233.4L781.5 173.3L697.2 217.4Z" fill="#3b82f6" stroke="#3b82f6"></path>
        <path d="M702.2 147.3L688.2 59.1L605.9 91.1Z" fill="#000000" stroke="#3b82f6"></path>
        <path d="M454.4 540L515.6 540L526.6 459.9Z" fill="#1e5ac6" stroke="#3b82f6"></path>
        <path d="M526.6 459.9L600.9 540L591.9 445.9Z" fill="#003396" stroke="#3b82f6"></path>
        <path d="M454.4 540L526.6 459.9L444.4 452.9Z" fill="#0040a7" stroke="#3b82f6"></path>
        <path d="M515.6 540L600.9 540L526.6 459.9Z" fill="#003396" stroke="#3b82f6"></path>
        <path d="M793.5 72.1L688.2 59.1L702.2 147.3Z" fill="#3274e6" stroke="#3b82f6"></path>
        <path d="M610.9 0L513.6 0L513.6 78.1Z" fill="#0040a7" stroke="#3b82f6"></path>
        <path d="M513.6 78.1L513.6 0L433.4 74.1Z" fill="#124db7" stroke="#3b82f6"></path>
        <path d="M678.2 445.9L792.5 404.7L694.2 381.7Z" fill="#000f67" stroke="#3b82f6"></path>
        <path d="M785.5 309.6L884.7 294.6L776.5 233.4Z" fill="#000000" stroke="#3b82f6"></path>
        <path d="M780.5 475.9L792.5 404.7L678.2 445.9Z" fill="#3b82f6" stroke="#3b82f6"></path>
        <path d="M348.1 477.9L454.4 540L444.4 452.9Z" fill="#1e5ac6" stroke="#3b82f6"></path>
        <path d="M338.1 381.7L348.1 477.9L444.4 452.9Z" fill="#000f67" stroke="#3b82f6"></path>
        <path d="M342.1 150.3L275.8 246.4L358.1 212.4Z" fill="#1e5ac6" stroke="#3b82f6"></path>
        <path d="M338.1 381.7L262.8 450.9L348.1 477.9Z" fill="#000000" stroke="#3b82f6"></path>
        <path d="M600.9 540L690.2 540L678.2 445.9Z" fill="#1e5ac6" stroke="#3b82f6"></path>
        <path d="M610.9 0L513.6 78.1L605.9 91.1Z" fill="#1e5ac6" stroke="#3b82f6"></path>
        <path d="M433.4 74.1L333.1 81.1L342.1 150.3Z" fill="#003396" stroke="#3b82f6"></path>
        <path d="M688.2 59.1L610.9 0L605.9 91.1Z" fill="#124db7" stroke="#3b82f6"></path>
        <path d="M690.2 540L780.5 475.9L678.2 445.9Z" fill="#3274e6" stroke="#3b82f6"></path>
        <path d="M253.8 318.6L266.8 366.7L344.1 294.6Z" fill="#002686" stroke="#3b82f6"></path>
        <path d="M275.8 246.4L253.8 318.6L344.1 294.6Z" fill="#3b82f6" stroke="#3b82f6"></path>
        <path d="M343.1 0L333.1 81.1L433.4 74.1Z" fill="#002686" stroke="#3b82f6"></path>
        <path d="M342.1 150.3L260.8 137.3L275.8 246.4Z" fill="#000f67" stroke="#3b82f6"></path>
        <path d="M513.6 0L422.4 0L433.4 74.1Z" fill="#0040a7" stroke="#3b82f6"></path>
        <path d="M885.7 455.9L862.7 372.7L792.5 404.7Z" fill="#3274e6" stroke="#3b82f6"></path>
        <path d="M792.5 404.7L862.7 372.7L785.5 309.6Z" fill="#3274e6" stroke="#3b82f6"></path>
        <path d="M781.5 173.3L793.5 72.1L702.2 147.3Z" fill="#2967d6" stroke="#3b82f6"></path>
        <path d="M688.2 59.1L703.2 0L610.9 0Z" fill="#3b82f6" stroke="#3b82f6"></path>
        <path d="M865.7 157.3L793.5 72.1L781.5 173.3Z" fill="#000000" stroke="#3b82f6"></path>
        <path d="M793.5 72.1L703.2 0L688.2 59.1Z" fill="#000f67" stroke="#3b82f6"></path>
        <path d="M333.1 81.1L260.8 137.3L342.1 150.3Z" fill="#003396" stroke="#3b82f6"></path>
        <path d="M275.8 246.4L175.5 232.4L253.8 318.6Z" fill="#000000" stroke="#3b82f6"></path>
        <path d="M276.8 63.1L260.8 137.3L333.1 81.1Z" fill="#3b82f6" stroke="#3b82f6"></path>
        <path d="M270.8 540L340.1 540L348.1 477.9Z" fill="#003396" stroke="#3b82f6"></path>
        <path d="M348.1 477.9L340.1 540L454.4 540Z" fill="#2967d6" stroke="#3b82f6"></path>
        <path d="M862.7 372.7L884.7 294.6L785.5 309.6Z" fill="#003396" stroke="#3b82f6"></path>
        <path d="M690.2 540L767.5 540L780.5 475.9Z" fill="#000000" stroke="#3b82f6"></path>
        <path d="M780.5 475.9L885.7 455.9L792.5 404.7Z" fill="#0040a7" stroke="#3b82f6"></path>
        <path d="M179.5 387.7L262.8 450.9L266.8 366.7Z" fill="#1e5ac6" stroke="#3b82f6"></path>
        <path d="M266.8 366.7L262.8 450.9L338.1 381.7Z" fill="#003396" stroke="#3b82f6"></path>
        <path d="M884.7 294.6L879.7 212.4L776.5 233.4Z" fill="#001b76" stroke="#3b82f6"></path>
        <path d="M879.7 212.4L865.7 157.3L781.5 173.3Z" fill="#002686" stroke="#3b82f6"></path>
        <path d="M422.4 0L343.1 0L433.4 74.1Z" fill="#3274e6" stroke="#3b82f6"></path>
        <path d="M343.1 0L276.8 63.1L333.1 81.1Z" fill="#1e5ac6" stroke="#3b82f6"></path>
        <path d="M862.7 372.7L960 318.6L884.7 294.6Z" fill="#001b76" stroke="#3b82f6"></path>
        <path d="M882.7 540L885.7 455.9L780.5 475.9Z" fill="#0040a7" stroke="#3b82f6"></path>
        <path d="M889.7 61.1L794.5 0L793.5 72.1Z" fill="#003396" stroke="#3b82f6"></path>
        <path d="M793.5 72.1L794.5 0L703.2 0Z" fill="#003396" stroke="#3b82f6"></path>
        <path d="M262.8 450.9L270.8 540L348.1 477.9Z" fill="#003396" stroke="#3b82f6"></path>
        <path d="M155.5 167.3L175.5 232.4L260.8 137.3Z" fill="#0040a7" stroke="#3b82f6"></path>
        <path d="M260.8 137.3L175.5 232.4L275.8 246.4Z" fill="#002686" stroke="#3b82f6"></path>
        <path d="M253.8 318.6L179.5 387.7L266.8 366.7Z" fill="#003396" stroke="#3b82f6"></path>
        <path d="M262.8 450.9L181.5 540L270.8 540Z" fill="#003396" stroke="#3b82f6"></path>
        <path d="M157.5 320.6L179.5 387.7L253.8 318.6Z" fill="#1e5ac6" stroke="#3b82f6"></path>
        <path d="M179.5 387.7L190.5 445.9L262.8 450.9Z" fill="#2967d6" stroke="#3b82f6"></path>
        <path d="M175.5 232.4L157.5 320.6L253.8 318.6Z" fill="#0040a7" stroke="#3b82f6"></path>
        <path d="M96.3 470.9L181.5 540L190.5 445.9Z" fill="#000000" stroke="#3b82f6"></path>
        <path d="M865.7 157.3L889.7 61.1L793.5 72.1Z" fill="#1e5ac6" stroke="#3b82f6"></path>
        <path d="M960 159.3L889.7 61.1L865.7 157.3Z" fill="#3b82f6" stroke="#3b82f6"></path>
        <path d="M960 159.3L865.7 157.3L879.7 212.4Z" fill="#002686" stroke="#3b82f6"></path>
        <path d="M960 245.4L879.7 212.4L884.7 294.6Z" fill="#3274e6" stroke="#3b82f6"></path>
        <path d="M960 390.7L960 318.6L862.7 372.7Z" fill="#001b76" stroke="#3b82f6"></path>
        <path d="M960 318.6L960 245.4L884.7 294.6Z" fill="#002686" stroke="#3b82f6"></path>
        <path d="M343.1 0L261.8 0L276.8 63.1Z" fill="#0040a7" stroke="#3b82f6"></path>
        <path d="M276.8 63.1L192.5 86.1L260.8 137.3Z" fill="#3b82f6" stroke="#3b82f6"></path>
        <path d="M261.8 0L192.5 86.1L276.8 63.1Z" fill="#2967d6" stroke="#3b82f6"></path>
        <path d="M175.5 232.4L95.3 306.6L157.5 320.6Z" fill="#001b76" stroke="#3b82f6"></path>
        <path d="M767.5 540L882.7 540L780.5 475.9Z" fill="#0040a7" stroke="#3b82f6"></path>
        <path d="M885.7 455.9L960 390.7L862.7 372.7Z" fill="#3b82f6" stroke="#3b82f6"></path>
        <path d="M192.5 86.1L155.5 167.3L260.8 137.3Z" fill="#124db7" stroke="#3b82f6"></path>
        <path d="M960 475.9L960 390.7L885.7 455.9Z" fill="#124db7" stroke="#3b82f6"></path>
        <path d="M960 245.4L960 159.3L879.7 212.4Z" fill="#003396" stroke="#3b82f6"></path>
        <path d="M960 0L885.7 0L889.7 61.1Z" fill="#002686" stroke="#3b82f6"></path>
        <path d="M889.7 61.1L885.7 0L794.5 0Z" fill="#1e5ac6" stroke="#3b82f6"></path>
        <path d="M882.7 540L960 475.9L885.7 455.9Z" fill="#3b82f6" stroke="#3b82f6"></path>
        <path d="M190.5 445.9L181.5 540L262.8 450.9Z" fill="#1e5ac6" stroke="#3b82f6"></path>
        <path d="M96.3 470.9L190.5 445.9L179.5 387.7Z" fill="#3274e6" stroke="#3b82f6"></path>
        <path d="M91.3 228.4L95.3 306.6L175.5 232.4Z" fill="#124db7" stroke="#3b82f6"></path>
        <path d="M157.5 320.6L72.3 372.7L179.5 387.7Z" fill="#001b76" stroke="#3b82f6"></path>
        <path d="M960 159.3L960 73.1L889.7 61.1Z" fill="#000f67" stroke="#3b82f6"></path>
        <path d="M85.3 156.3L91.3 228.4L155.5 167.3Z" fill="#3b82f6" stroke="#3b82f6"></path>
        <path d="M155.5 167.3L91.3 228.4L175.5 232.4Z" fill="#003396" stroke="#3b82f6"></path>
        <path d="M882.7 540L960 540L960 475.9Z" fill="#2967d6" stroke="#3b82f6"></path>
        <path d="M70.3 71.1L85.3 156.3L192.5 86.1Z" fill="#0040a7" stroke="#3b82f6"></path>
        <path d="M192.5 86.1L85.3 156.3L155.5 167.3Z" fill="#000000" stroke="#3b82f6"></path>
        <path d="M0 319.6L72.3 372.7L95.3 306.6Z" fill="#1e5ac6" stroke="#3b82f6"></path>
        <path d="M261.8 0L158.5 0L192.5 86.1Z" fill="#002686" stroke="#3b82f6"></path>
        <path d="M0 319.6L95.3 306.6L0 222.4Z" fill="#3b82f6" stroke="#3b82f6"></path>
        <path d="M95.3 306.6L72.3 372.7L157.5 320.6Z" fill="#1e5ac6" stroke="#3b82f6"></path>
        <path d="M72.3 372.7L96.3 470.9L179.5 387.7Z" fill="#000000" stroke="#3b82f6"></path>
        <path d="M960 73.1L960 0L889.7 61.1Z" fill="#002686" stroke="#3b82f6"></path>
        <path d="M158.5 0L70.3 71.1L192.5 86.1Z" fill="#001b76" stroke="#3b82f6"></path>
        <path d="M0 222.4L95.3 306.6L91.3 228.4Z" fill="#124db7" stroke="#3b82f6"></path>
        <path d="M0 461.9L78.3 540L96.3 470.9Z" fill="#000000" stroke="#3b82f6"></path>
        <path d="M96.3 470.9L78.3 540L181.5 540Z" fill="#000000" stroke="#3b82f6"></path>
        <path d="M0 222.4L91.3 228.4L85.3 156.3Z" fill="#124db7" stroke="#3b82f6"></path>
        <path d="M72.3 372.7L0 461.9L96.3 470.9Z" fill="#0040a7" stroke="#3b82f6"></path>
        <path d="M0 146.3L0 222.4L85.3 156.3Z" fill="#000000" stroke="#3b82f6"></path>
        <path d="M158.5 0L72.3 0L70.3 71.1Z" fill="#3274e6" stroke="#3b82f6"></path>
        <path d="M70.3 71.1L0 146.3L85.3 156.3Z" fill="#1e5ac6" stroke="#3b82f6"></path>
        <path d="M0 319.6L0 384.7L72.3 372.7Z" fill="#001b76" stroke="#3b82f6"></path>
        <path d="M0 69.1L0 146.3L70.3 71.1Z" fill="#3274e6" stroke="#3b82f6"></path>
        <path d="M0 384.7L0 461.9L72.3 372.7Z" fill="#1e5ac6" stroke="#3b82f6"></path>
        <path d="M72.3 0L0 69.1L70.3 71.1Z" fill="#002686" stroke="#3b82f6"></path>
        <path d="M0 461.9L0 540L78.3 540Z" fill="#001b76" stroke="#3b82f6"></path>
        <path d="M72.3 0L0 0L0 69.1Z" fill="#1e5ac6" stroke="#3b82f6"></path>
    </g>
</svg>